<svg aria-hidden="true" style="position: absolute; width: 0; height: 0; overflow: hidden;" version="1.1" xmlns="http://www.w3.org/2000/svg" xmlns:xlink="http://www.w3.org/1999/xlink">
<defs>
<symbol id="icon-pass-open" viewBox="0 0 32 32">
<path fill="#1e65e1" style="fill: var(--color1, #1e65e1)" d="M21.227 17.065c0.068-0.321 0.108-0.689 0.108-1.066 0-2.946-2.388-5.333-5.333-5.333-0.377 0-0.746 0.039-1.101 0.114l0.035-0.006 1.231 1.231c2.079 0.089 3.742 1.752 3.83 3.822l0 0.008 1.231 1.231zM12.524 14.019c-0.331 0.57-0.527 1.254-0.527 1.984 0 2.209 1.791 4 4 4 0.73 0 1.414-0.196 2.003-0.537l-0.019 0.010 0.968 0.968c-0.83 0.558-1.851 0.89-2.95 0.89-2.946 0-5.333-2.388-5.333-5.333 0-1.099 0.333-2.121 0.903-2.97l-0.012 0.019 0.968 0.968z"></path>
<path fill="#1e65e1" style="fill: var(--color1, #1e65e1)" d="M21.539 23.033l-0.98-0.979c-1.419 0.772-2.96 1.279-4.559 1.279-2.229 0-4.349-0.987-6.177-2.301-1.823-1.312-3.299-2.909-4.227-4.035-0.564-0.687-0.623-0.805-0.623-0.997 0-0.191 0.059-0.311 0.624-0.997 0.893-1.083 2.293-2.604 4.024-3.887l-0.955-0.952c-1.773 1.343-3.195 2.893-4.099 3.991l-0.079 0.096c-0.44 0.532-0.849 1.027-0.849 1.749s0.409 1.217 0.849 1.749l0.079 0.096c0.967 1.173 2.525 2.865 4.476 4.268 1.947 1.4 4.337 2.553 6.956 2.553 2.013 0 3.893-0.681 5.539-1.633zM12.253 8.093c1.173-0.467 2.431-0.759 3.747-0.759 2.619 0 5.011 1.153 6.956 2.553 1.951 1.403 3.509 3.095 4.476 4.268l0.079 0.096c0.44 0.532 0.849 1.027 0.849 1.749s-0.409 1.217-0.849 1.749l-0.079 0.096c-0.834 1.010-1.699 1.919-2.623 2.763l-0.021 0.019-0.944-0.944c0.917-0.832 1.754-1.709 2.526-2.643l0.034-0.043c0.564-0.687 0.623-0.805 0.623-0.997 0-0.191-0.059-0.311-0.624-0.997-0.927-1.125-2.403-2.723-4.227-4.035-1.825-1.316-3.945-2.303-6.176-2.303-0.925 0-1.833 0.171-2.708 0.464l-1.040-1.040z"></path>
<path fill="none" stroke="#1e65e1" style="stroke: var(--color1, #1e65e1)" stroke-linejoin="miter" stroke-linecap="butt" stroke-miterlimit="4" stroke-width="1.3333" d="M6.667 2.667l21.333 21.333"></path>
</symbol>
<symbol id="icon-pass-close" viewBox="0 0 32 32">
<path fill="none" stroke="#1e65e1" style="stroke: var(--color1, #1e65e1)" stroke-linejoin="miter" stroke-linecap="butt" stroke-miterlimit="4" stroke-width="1.3333" d="M20.667 16c0 2.577-2.089 4.667-4.667 4.667s-4.667-2.089-4.667-4.667c0-2.577 2.089-4.667 4.667-4.667s4.667 2.089 4.667 4.667z"></path>
<path fill="none" stroke="#1e65e1" style="stroke: var(--color1, #1e65e1)" stroke-linejoin="miter" stroke-linecap="butt" stroke-miterlimit="4" stroke-width="1.3333" d="M26.917 14.579c0.517 0.629 0.776 0.943 0.776 1.421s-0.259 0.792-0.776 1.421c-1.893 2.299-6.069 6.579-10.917 6.579s-9.024-4.28-10.917-6.579c-0.517-0.629-0.776-0.943-0.776-1.421s0.259-0.792 0.776-1.421c1.893-2.299 6.069-6.579 10.917-6.579s9.024 4.28 10.917 6.579z"></path>
</symbol>
</defs>
</svg>
