<svg xmlns="http://www.w3.org/2000/svg" width="140" height="44" fill="none">
  <path fill="#3D7FF2" d="M40.087 12.782c-.089-.325-.178-.62-.266-.914-.386-1.12-.89-2.21-1.541-3.183a11.526 11.526 0 0 0-.889-1.209 14.551 14.551 0 0 0-2.015-2.034L34.813 5l-.563.472c-.385.294-.77.59-1.155.854-.444.295-.948.56-1.452.796-.326.148-.681.295-1.037.442-.326.118-.652.236-.978.325a11.858 11.858 0 0 1-3.23.442c-.266 0-.532 0-.77-.03l-.148-.059a12.782 12.782 0 0 1-3.348-.707 11.76 11.76 0 0 1-1.392-.619l-.415-.206-.415.206c-.415.206-.83.383-1.274.56l-.148.059a12.822 12.822 0 0 1-3.318.707h-.148c-.237.03-.504.03-.77.03-1.097 0-2.193-.148-3.23-.442l-.682-.177-.326.648c-.207.443-.414.885-.592 1.356a16.563 16.563 0 0 0-.83 2.683 26.46 26.46 0 0 0-.355 2.21v.03c-.06.56-.09 1.15-.09 1.739v.324a18.39 18.39 0 0 0 .445 3.626c.06.295.148.59.208.855a18.185 18.185 0 0 0 1.807 4.274c.06.088.119.206.178.294 1.007 1.68 2.31 3.154 3.792 4.422A18.507 18.507 0 0 0 20 33.268l.297.118.296-.118a18.423 18.423 0 0 0 5.185-2.948l.266-.206a18.018 18.018 0 0 0 3.793-4.422c.03-.058.089-.117.118-.206l.06-.088c.8-1.356 1.392-2.8 1.807-4.274.089-.295.148-.59.207-.855.267-1.18.415-2.417.445-3.655l.03-1.15-1.127.295a20.497 20.497 0 0 1-3.229.53l-.415.03c-.089 0-.207 0-.296.03-.356.029-.711.029-1.096.029-.948 0-1.896-.06-2.815-.206l-.918-.118-.09.943c-.09 1.23-.457 2.478-1.096 3.537l-.681 1.12c1.478.234 2.947.448 4.444.53a4.446 4.446 0 0 1-.296.502 12.864 12.864 0 0 1-1.422 1.916l-.03.03-.03.029-.03.03a13.139 13.139 0 0 1-3.021 2.387 11.728 11.728 0 0 1-3.022-2.388l-.03-.03-.03-.029-.03-.03a12.857 12.857 0 0 1-1.421-1.915c-.326-.56-.623-1.12-.86-1.68a12.2 12.2 0 0 1-.859-3.36v-.472l-.03-.03c-.03-.294-.03-.56-.03-.825 0-.737.06-1.474.208-2.21 1.304 0 2.608-.119 3.852-.384.77-.147 1.54-.383 2.281-.619.741.265 1.511.472 2.282.619 1.274.265 2.577.413 3.881.383l.74-.03a16.983 16.983 0 0 0 4.238-.707c.8-.236 1.57-.5 2.31-.854.445.795.89 1.71 1.008 2.682.03.383.03.707.03 1.002v.059c0 1.061-.09 2.152-.267 3.213a19.392 19.392 0 0 1-1.274 4.48 20.779 20.779 0 0 1-2.015 3.744 21.285 21.285 0 0 1-4.71 4.922l-.238.177a20.903 20.903 0 0 1-6.014 3.007 19.934 19.934 0 0 1-5.63-2.741l-.592-.443c-1.867-1.297-3.467-2.947-4.77-4.863a19.834 19.834 0 0 1-2.015-3.744 21.485 21.485 0 0 1-1.274-4.48c-.349-2.08-.666-4.778-.148-6.839v-.03c.444-1.915.846-3.414 1.926-5.187C5.185 6.71 4.889 6.179 3.229 5l-.622 1.18a40.44 40.44 0 0 0-.977 1.974C.482 10.75 0 13.482 0 16.319c0 .442 0 .884.03 1.297.089 1.739.355 3.478.77 5.188.83 3.213 2.222 6.22 4.207 8.902l.445.59c1.807 2.357 4 4.362 6.488 5.983a26.029 26.029 0 0 0 8.207 3.537l.208.059.207-.059a26.626 26.626 0 0 0 8.207-3.537 26.063 26.063 0 0 0 6.489-5.984l.444-.59a26.196 26.196 0 0 0 4.208-8.901c.837-3.221.994-6.772.177-10.022Z"/>
  <path fill="#42546A" d="M47.704 19.02V17.68h2.17v1.512c0 .838.072 1.427.214 1.769.142.336.41.504.803.504.393 0 .652-.14.778-.419.13-.279.196-.735.196-1.367s-.114-1.182-.342-1.649c-.227-.473-.59-.965-1.085-1.478l-1.11-1.145a6.924 6.924 0 0 1-1.214-1.684c-.285-.58-.427-1.253-.427-2.016 0-1.242.239-2.165.718-2.769.478-.604 1.301-.906 2.469-.906s1.957.354 2.367 1.06c.416.7.624 1.726.624 3.076v.932h-2.11v-1.077c0-.73-.064-1.25-.189-1.564-.125-.319-.367-.478-.726-.478-.353 0-.61.12-.77.359-.153.239-.23.598-.23 1.076 0 .479.08.86.24 1.145.159.285.447.65.862 1.094l1.24 1.342c.62.672 1.087 1.353 1.4 2.042.32.69.48 1.441.48 2.256 0 1.407-.237 2.446-.71 3.119-.473.672-1.302 1.008-2.486 1.008-1.18 0-2.003-.373-2.47-1.12-.461-.751-.692-1.845-.692-3.28Zm8.216 4.23V8.21h5.041v1.975H58.21v4.375h2.614v1.931H58.21v4.785h2.854v1.974H55.92Zm13.496-4.102c0 1.453-.259 2.53-.777 3.23-.519.695-1.333 1.043-2.444 1.043s-1.943-.37-2.495-1.11c-.547-.747-.82-1.818-.82-3.214v-6.554c0-2.239.586-3.637 1.76-4.195.433-.205.957-.308 1.572-.308 2.113 0 3.17 1.333 3.17 4v2.067h-2.213v-1.923c0-.774-.066-1.327-.197-1.657-.13-.336-.387-.504-.769-.504-.381 0-.646.176-.794.53-.149.352-.223.894-.223 1.623V19.2c0 .809.072 1.387.214 1.734.142.348.402.522.778.522s.635-.177.777-.53c.143-.353.214-.937.214-1.752v-2.153h2.247v2.127Zm8.592.24c0 1.384-.262 2.404-.786 3.059-.524.65-1.367.974-2.53.974-1.156 0-1.999-.328-2.529-.983-.524-.655-.786-1.672-.786-3.05V8.202h2.29v11.143c0 .792.037 1.273.111 1.444a2.5 2.5 0 0 0 .265.47c.108.137.328.205.658.205s.567-.097.71-.29c.142-.194.227-.433.256-.718.034-.29.05-.661.05-1.111V8.202h2.29v11.186Zm5.37-3.205-.735-.034v7.101h-2.29V8.21h3.786c.786 0 1.373.16 1.76.48.387.313.64.754.76 1.324.126.564.188 1.304.188 2.222 0 .911-.096 1.606-.29 2.085-.194.478-.553.8-1.077.965.519.091.88.442 1.085 1.051.206.61.308 1.88.308 3.811 0 1.926.029 2.96.085 3.102h-2.29c-.056-.114-.085-1.911-.085-5.392 0-.666-.08-1.108-.24-1.324-.159-.223-.48-.34-.965-.35Zm-.726-1.811h.914c.29 0 .504-.066.641-.197.143-.13.24-.356.29-.675.058-.319.086-.806.086-1.46v-.095c0-.815-.068-1.347-.205-1.598-.137-.25-.453-.376-.948-.376h-.778v4.4Zm6.507 8.878V8.21H94.2v1.975H91.45v4.375h2.615v1.931h-2.615v4.785h2.854v1.974h-5.144Zm10.168-4.23V17.68h2.17v1.512c0 .838.071 1.427.214 1.769.142.336.41.504.803.504.393 0 .652-.14.778-.419.131-.279.196-.735.196-1.367s-.114-1.182-.342-1.649c-.227-.473-.589-.965-1.085-1.478l-1.111-1.145a6.92 6.92 0 0 1-1.213-1.684c-.285-.58-.427-1.253-.427-2.016 0-1.242.239-2.165.717-2.769.479-.604 1.302-.906 2.47-.906 1.168 0 1.957.354 2.367 1.06.416.7.624 1.726.624 3.076v.932h-2.111v-1.077c0-.73-.063-1.25-.188-1.564-.125-.319-.367-.478-.726-.478-.353 0-.61.12-.769.359-.154.239-.231.598-.231 1.076 0 .479.08.86.239 1.145.16.285.447.65.863 1.094l1.239 1.342c.621.672 1.088 1.353 1.402 2.042.319.69.478 1.441.478 2.256 0 1.407-.236 2.446-.709 3.119-.473.672-1.302 1.008-2.487 1.008-1.179 0-2.002-.373-2.469-1.12-.462-.751-.692-1.845-.692-3.28Zm8.216 4.23V8.21h2.29v6.085h2.05V8.21h2.29V23.25h-2.29v-6.99h-2.05v6.99h-2.29Zm13.094-4.52-1.008-7.554h-.034l-.923 7.554h1.965Zm-4.716 4.52 2.144-15.04h3.025l2.282 15.04h-2.136l-.359-2.683h-2.427l-.325 2.683h-2.204Zm12.223-7.067-.735-.034v7.101h-2.29V8.21h3.786c.786 0 1.372.16 1.76.48.387.313.641.754.76 1.324.126.564.188 1.304.188 2.222 0 .911-.097 1.606-.29 2.085-.194.478-.553.8-1.077.965.518.091.88.442 1.085 1.051.205.61.308 1.88.308 3.811 0 1.926.028 2.96.085 3.102h-2.29c-.057-.114-.085-1.911-.085-5.392 0-.666-.08-1.108-.239-1.324-.16-.223-.482-.34-.966-.35Zm-.726-1.811h.914c.291 0 .504-.066.641-.197.142-.13.239-.356.29-.675.057-.319.086-.806.086-1.46v-.095c0-.815-.068-1.347-.205-1.598-.137-.25-.453-.376-.949-.376h-.777v4.4Zm6.507 8.878V8.21h5.041v1.975h-2.751v4.375h2.614v1.931h-2.614v4.785h2.854v1.974h-5.144Z"/>
  <path fill="#999FAE" d="M51.328 36.48c0 .354-.086.654-.259.898-.172.244-.425.43-.757.557-.328.123-.732.185-1.21.185-.378 0-.704-.027-.977-.083a3.345 3.345 0 0 1-.767-.244v-.991c.258.12.546.224.865.312.322.088.626.132.913.132.377 0 .65-.058.815-.176a.563.563 0 0 0 .25-.478.508.508 0 0 0-.103-.313c-.065-.094-.19-.19-.371-.288-.18-.1-.443-.221-.791-.361a6.587 6.587 0 0 1-.865-.41 1.505 1.505 0 0 1-.532-.493c-.12-.196-.18-.445-.18-.747 0-.479.188-.842.566-1.09.38-.25.884-.375 1.509-.375.332 0 .644.034.937.102.296.065.586.161.87.288l-.362.865a5.382 5.382 0 0 0-.737-.264 2.641 2.641 0 0 0-.748-.107c-.296 0-.522.045-.678.136a.43.43 0 0 0-.23.39.48.48 0 0 0 .113.323c.075.088.203.176.385.264.186.088.443.197.772.327.322.124.6.254.835.39.237.134.42.299.547.494.127.195.19.447.19.757Zm3.194-3.965c.482 0 .895.1 1.24.298.345.198.61.48.796.844.185.365.278.801.278 1.309v.615h-3.608c.013.524.153.928.42 1.211.27.283.647.425 1.133.425.345 0 .654-.033.927-.098.277-.068.562-.167.855-.298v.933a3.73 3.73 0 0 1-.826.278c-.28.059-.615.088-1.005.088-.531 0-.998-.102-1.402-.307a2.25 2.25 0 0 1-.942-.928c-.225-.41-.337-.92-.337-1.528 0-.606.102-1.12.308-1.543.205-.424.493-.746.864-.967.37-.222.804-.332 1.299-.332Zm0 .864c-.362 0-.655.117-.88.352-.22.234-.35.577-.39 1.03h2.461a1.893 1.893 0 0 0-.137-.718 1.042 1.042 0 0 0-.39-.488c-.173-.117-.394-.176-.664-.176Zm6.226-.864c.608 0 1.082.158 1.42.473.342.313.513.816.513 1.51v3.525h-1.147v-3.311c0-.42-.087-.734-.26-.942-.172-.212-.439-.318-.8-.318-.524 0-.889.161-1.094.484-.202.322-.303.79-.303 1.401v2.686H57.93v-5.406h.894l.16.733h.064c.117-.19.262-.344.435-.464.176-.124.37-.217.586-.279.218-.061.444-.092.678-.092Zm5.156 5.605c-.645 0-1.162-.234-1.553-.703-.387-.472-.58-1.167-.58-2.085 0-.928.196-1.63.59-2.104.397-.476.92-.713 1.567-.713.274 0 .513.037.718.112.205.072.381.17.527.293.15.124.277.262.381.415h.054c-.016-.1-.036-.246-.059-.434-.02-.193-.029-.37-.029-.533v-1.943h1.153v7.598h-.899l-.205-.738h-.049a1.724 1.724 0 0 1-.898.723 2.064 2.064 0 0 1-.718.112Zm.322-.932c.492 0 .838-.142 1.04-.425.202-.283.306-.708.313-1.275v-.151c0-.605-.098-1.07-.293-1.392-.196-.325-.552-.488-1.07-.488-.413 0-.729.168-.947.503-.215.332-.322.796-.322 1.392 0 .595.107 1.051.322 1.367.218.312.537.469.957.469Zm9.107-4.673c.609 0 1.082.158 1.42.473.343.313.514.816.514 1.51v3.525h-1.148v-3.311c0-.42-.086-.734-.259-.942-.172-.212-.44-.318-.8-.318-.525 0-.89.161-1.094.484-.202.322-.303.79-.303 1.401v2.686h-1.147v-5.406h.893l.161.733h.064a1.56 1.56 0 0 1 .434-.464c.176-.124.371-.217.586-.279.218-.061.445-.092.679-.092Zm8.125 2.793c0 .449-.058.848-.176 1.196a2.396 2.396 0 0 1-.512.884 2.26 2.26 0 0 1-.81.547 2.912 2.912 0 0 1-1.07.185c-.371 0-.711-.062-1.02-.185a2.329 2.329 0 0 1-.806-.547 2.507 2.507 0 0 1-.523-.884 3.564 3.564 0 0 1-.185-1.196c0-.596.102-1.1.307-1.514a2.19 2.19 0 0 1 .889-.952c.384-.218.841-.327 1.372-.327.498 0 .938.109 1.318.327.381.218.68.535.894.952.215.417.322.921.322 1.514Zm-3.92 0c0 .394.047.73.14 1.01.099.28.248.495.45.645.202.146.462.22.781.22.32 0 .58-.074.782-.22.201-.15.35-.365.444-.645.094-.28.142-.616.142-1.01s-.048-.728-.142-1.001a1.23 1.23 0 0 0-.444-.63c-.202-.147-.464-.22-.787-.22-.475 0-.821.16-1.04.479-.218.319-.327.776-.327 1.372Zm7.05 1.885c.15 0 .298-.014.445-.04.146-.029.28-.063.4-.102v.869a2.39 2.39 0 0 1-.493.142c-.202.039-.412.058-.63.058-.306 0-.581-.05-.825-.151a1.207 1.207 0 0 1-.581-.532c-.144-.251-.215-.598-.215-1.04V33.49h-.737v-.512l.79-.406.377-1.157h.722v1.201h1.548v.874h-1.548v2.891c0 .273.069.477.205.61.137.134.318.2.542.2Zm3.897-4.678c.482 0 .895.1 1.24.298.345.198.61.48.796.844.186.365.278.801.278 1.309v.615h-3.608c.013.524.153.928.42 1.211.27.283.648.425 1.133.425.345 0 .654-.033.927-.098.277-.068.562-.167.855-.298v.933a3.73 3.73 0 0 1-.825.278 4.98 4.98 0 0 1-1.006.088c-.53 0-.998-.102-1.401-.307a2.25 2.25 0 0 1-.943-.928c-.224-.41-.337-.92-.337-1.528 0-.606.103-1.12.308-1.543.205-.424.493-.746.864-.967.371-.222.804-.332 1.299-.332Zm0 .864c-.361 0-.654.117-.879.352-.221.234-.352.577-.39 1.03h2.46a1.895 1.895 0 0 0-.136-.718 1.042 1.042 0 0 0-.391-.488c-.172-.117-.394-.176-.664-.176Zm7.041 3.1c0 .355-.086.655-.259.9-.172.243-.424.429-.756.556-.33.123-.733.185-1.211.185-.378 0-.703-.027-.977-.083a3.346 3.346 0 0 1-.767-.244v-.991c.258.12.546.224.865.312.322.088.626.132.913.132.377 0 .65-.058.815-.176a.563.563 0 0 0 .25-.478.507.507 0 0 0-.103-.313c-.065-.094-.19-.19-.371-.288a7.1 7.1 0 0 0-.791-.361 6.583 6.583 0 0 1-.865-.41 1.507 1.507 0 0 1-.532-.493c-.12-.196-.18-.445-.18-.747 0-.479.188-.842.566-1.09.38-.25.884-.375 1.509-.375.332 0 .644.034.937.102.296.065.586.161.87.288l-.362.865a5.392 5.392 0 0 0-.737-.264 2.642 2.642 0 0 0-.747-.107c-.297 0-.523.045-.68.136a.43.43 0 0 0-.229.39.48.48 0 0 0 .113.323c.075.088.203.176.385.264.186.088.443.197.772.327.322.124.6.254.835.39.237.134.42.299.547.494.127.195.19.447.19.757Zm7.071 0c0 .355-.086.655-.259.9-.172.243-.425.429-.757.556-.329.123-.732.185-1.211.185a4.98 4.98 0 0 1-.976-.083 3.353 3.353 0 0 1-.767-.244v-.991c.257.12.545.224.864.312.323.088.627.132.913.132.378 0 .65-.058.816-.176a.563.563 0 0 0 .249-.478.504.504 0 0 0-.103-.313c-.065-.094-.188-.19-.371-.288a7.04 7.04 0 0 0-.791-.361 6.602 6.602 0 0 1-.864-.41 1.505 1.505 0 0 1-.532-.493c-.121-.196-.181-.445-.181-.747 0-.479.189-.842.567-1.09.38-.25.883-.375 1.508-.375.332 0 .645.034.938.102.296.065.586.161.869.288l-.361.865a5.358 5.358 0 0 0-.738-.264 2.64 2.64 0 0 0-.747-.107c-.296 0-.522.045-.678.136a.431.431 0 0 0-.23.39c0 .128.038.235.112.323.075.088.204.176.386.264.186.088.443.197.772.327.322.124.6.254.835.39.237.134.419.299.546.494.127.195.191.447.191.757Zm3.193-3.964c.482 0 .896.1 1.241.298a2 2 0 0 1 .796.844c.185.365.278.801.278 1.309v.615h-3.609c.014.524.153.928.42 1.211.271.283.648.425 1.133.425.345 0 .655-.033.928-.098.277-.068.561-.167.854-.298v.933c-.27.127-.545.22-.825.278-.28.059-.615.088-1.006.088-.53 0-.997-.102-1.401-.307a2.252 2.252 0 0 1-.942-.928c-.225-.41-.337-.92-.337-1.528 0-.606.102-1.12.307-1.543a2.22 2.22 0 0 1 .865-.967c.371-.222.804-.332 1.298-.332Zm0 .864c-.361 0-.654.117-.878.352-.222.234-.352.577-.391 1.03h2.461a1.886 1.886 0 0 0-.137-.718 1.043 1.043 0 0 0-.391-.488c-.172-.117-.393-.176-.664-.176Zm5.587 4.741c-.511 0-.954-.099-1.329-.298a1.998 1.998 0 0 1-.864-.913c-.202-.41-.303-.93-.303-1.562 0-.658.111-1.195.332-1.611a2.12 2.12 0 0 1 .918-.923 2.967 2.967 0 0 1 1.353-.298c.322 0 .614.032.874.097.264.062.487.139.669.23l-.342.918a4.949 4.949 0 0 0-.61-.205 2.347 2.347 0 0 0-.601-.083c-.316 0-.579.07-.791.21-.208.14-.364.348-.469.625-.1.276-.151.62-.151 1.03 0 .397.052.732.156 1.006.105.27.259.475.464.615.205.137.458.205.757.205.296 0 .562-.036.796-.107a3.53 3.53 0 0 0 .664-.278v.996a2.465 2.465 0 0 1-.659.258 3.628 3.628 0 0 1-.864.088Zm7.304-5.503v5.406h-.903l-.156-.728h-.064c-.114.186-.258.34-.434.464-.176.12-.371.21-.586.269a2.444 2.444 0 0 1-.679.092c-.407 0-.755-.068-1.045-.205a1.454 1.454 0 0 1-.659-.644c-.153-.29-.229-.664-.229-1.123v-3.53h1.152v3.315c0 .42.085.734.254.942.172.209.439.313.801.313.348 0 .625-.072.83-.215.205-.143.35-.355.434-.635.088-.28.132-.623.132-1.03v-2.69h1.152Zm4.185-.102a3.328 3.328 0 0 1 .576.053l-.107 1.075a1.441 1.441 0 0 0-.254-.044 2.663 2.663 0 0 0-.264-.015c-.205 0-.4.034-.586.103a1.392 1.392 0 0 0-.83.806 1.879 1.879 0 0 0-.122.702v2.828h-1.152v-5.406h.898l.157.953h.053c.108-.193.241-.368.401-.528.159-.16.342-.286.547-.38.208-.098.436-.147.683-.147Zm3.531 0c.481 0 .895.1 1.24.298a2 2 0 0 1 .796.844c.185.365.278.801.278 1.309v.615h-3.608c.013.524.153.928.42 1.211.27.283.647.425 1.132.425.346 0 .655-.033.928-.098.277-.068.562-.167.855-.298v.933a3.74 3.74 0 0 1-.825.278c-.28.059-.616.088-1.006.088-.531 0-.998-.102-1.402-.307a2.252 2.252 0 0 1-.942-.928c-.225-.41-.337-.92-.337-1.528 0-.606.103-1.12.308-1.543.205-.424.493-.746.864-.967.371-.222.804-.332 1.299-.332Zm0 .864c-.362 0-.655.117-.879.352-.222.234-.352.577-.391 1.03h2.461a1.886 1.886 0 0 0-.137-.718 1.035 1.035 0 0 0-.39-.488c-.173-.117-.394-.176-.664-.176Zm4.56 4.644h-1.152v-7.598h1.152v7.598Zm.626-5.406h1.25l1.108 3.086c.049.14.093.279.132.415.042.134.078.266.107.396.033.13.059.26.078.39h.03c.032-.169.078-.358.136-.566.062-.212.131-.423.206-.635l1.064-3.086h1.235l-2.319 6.148a3.365 3.365 0 0 1-.493.898c-.192.25-.42.44-.684.567-.263.13-.565.195-.903.195-.163 0-.304-.01-.425-.03a3.46 3.46 0 0 1-.308-.053v-.918a2.607 2.607 0 0 0 .582.063 1.1 1.1 0 0 0 .532-.122c.149-.081.276-.197.381-.346.104-.147.19-.314.258-.503l.191-.508-2.158-5.39Z"/>
</svg>
