<svg xmlns="http://www.w3.org/2000/svg" width="202" height="64" fill="none">
  <g clip-path="url(#a)">
    <path fill="#3D7FF2" d="M57.84 18.88c-.128-.468-.256-.893-.385-1.319-.555-1.616-1.282-3.19-2.222-4.593a16.608 16.608 0 0 0-1.283-1.744 20.992 20.992 0 0 0-2.907-2.934l-.812-.638-.812.68c-.556.426-1.112.85-1.668 1.234a16.47 16.47 0 0 1-2.094 1.148c-.47.213-.984.425-1.497.638-.47.17-.94.34-1.41.468a17.11 17.11 0 0 1-4.66.638c-.385 0-.77 0-1.112-.043l-.213-.085a18.44 18.44 0 0 1-4.831-1.02 16.98 16.98 0 0 1-2.01-.894l-.598-.298-.598.298c-.599.298-1.197.553-1.838.808l-.214.085a18.498 18.498 0 0 1-4.788 1.021h-.214c-.342.043-.727.043-1.111.043a17.11 17.11 0 0 1-4.66-.638l-.983-.255-.47.935c-.3.638-.6 1.276-.856 1.957-.513 1.233-.897 2.551-1.197 3.87a38.14 38.14 0 0 0-.513 3.19v.042a24.047 24.047 0 0 0-.128 2.51v.467c.043 1.787.257 3.53.641 5.232.086.425.214.85.3 1.233a26.236 26.236 0 0 0 2.607 6.167c.086.127.171.297.257.425 1.453 2.424 3.334 4.55 5.472 6.38a26.701 26.701 0 0 0 7.823 4.55l.427.17.428-.17a26.58 26.58 0 0 0 7.481-4.253l.385-.297a26.002 26.002 0 0 0 5.472-6.38c.043-.085.128-.17.17-.298l.086-.127a25.956 25.956 0 0 0 2.608-6.167c.128-.425.214-.85.3-1.233.384-1.702.598-3.488.64-5.274l.043-1.659-1.624.425a29.56 29.56 0 0 1-4.66.766l-.598.042c-.129 0-.3 0-.428.043-.513.043-1.026.043-1.582.043a25.73 25.73 0 0 1-4.06-.298l-1.326-.17-.128 1.36c-.132 1.775-.66 3.576-1.582 5.104l-.983 1.616c2.132.338 4.252.647 6.412.766a6.404 6.404 0 0 1-.427.723 18.563 18.563 0 0 1-2.052 2.764l-.043.043-.043.043-.043.042a18.962 18.962 0 0 1-4.36 3.445 16.923 16.923 0 0 1-4.36-3.445l-.043-.042-.043-.043-.043-.043a18.563 18.563 0 0 1-2.052-2.764 21.65 21.65 0 0 1-1.24-2.424c-.64-1.574-1.068-3.19-1.24-4.849v-.68l-.042-.043c-.043-.425-.043-.808-.043-1.19 0-1.064.086-2.127.3-3.19 1.88 0 3.762-.17 5.557-.553 1.111-.213 2.223-.553 3.292-.893 1.069.382 2.18.68 3.291.893 1.839.383 3.72.595 5.6.553l1.07-.043a24.508 24.508 0 0 0 6.113-1.02c1.154-.34 2.265-.724 3.334-1.234.641 1.148 1.282 2.467 1.453 3.87.043.553.043 1.021.043 1.446v.085c0 1.531-.128 3.105-.385 4.636A27.982 27.982 0 0 1 48.093 35a29.978 29.978 0 0 1-2.907 5.401 30.71 30.71 0 0 1-6.797 7.103l-.342.255a30.159 30.159 0 0 1-8.678 4.338 28.757 28.757 0 0 1-8.122-3.955l-.855-.638c-2.694-1.872-5.002-4.253-6.883-7.018-1.154-1.701-2.138-3.487-2.907-5.401a30.995 30.995 0 0 1-1.838-6.465c-.503-3.002-.961-6.894-.214-9.867v-.042c.641-2.765 1.22-4.928 2.779-7.486-3.848-1.106-4.275-1.871-6.67-3.572l-.897 1.701a58.365 58.365 0 0 0-1.41 2.85C.694 15.948 0 19.89 0 23.983c0 .638 0 1.276.043 1.872.128 2.509.513 5.018 1.111 7.485 1.197 4.636 3.206 8.974 6.07 12.844l.642.85c2.608 3.403 5.771 6.295 9.362 8.635a37.557 37.557 0 0 0 11.842 5.103l.299.085.3-.085a38.42 38.42 0 0 0 11.84-5.103c3.592-2.34 6.755-5.232 9.363-8.634l.641-.85a37.797 37.797 0 0 0 6.07-12.845c1.209-4.647 1.436-9.77.257-14.46Z"/>
    <path fill="#42546A" d="M68.83 27.352v-1.935h3.131v2.182c0 1.208.103 2.059.309 2.552.205.485.592.728 1.159.728.567 0 .94-.202 1.121-.605.19-.402.284-1.06.284-1.972 0-.913-.164-1.706-.493-2.38-.329-.682-.85-1.393-1.566-2.133l-1.603-1.652c-.748-.78-1.331-1.59-1.75-2.429-.411-.838-.617-1.808-.617-2.91 0-1.791.345-3.123 1.036-3.994.69-.871 1.878-1.307 3.563-1.307 1.685 0 2.823.51 3.415 1.529.6 1.011.9 2.49.9 4.439v1.343h-3.045v-1.553c0-1.052-.09-1.804-.271-2.256-.181-.46-.53-.69-1.048-.69-.51 0-.88.172-1.11.517-.222.345-.333.863-.333 1.553 0 .691.115 1.242.345 1.653.23.41.645.937 1.246 1.578l1.787 1.935c.896.97 1.57 1.952 2.022 2.947.46.995.69 2.08.69 3.255 0 2.03-.34 3.53-1.023 4.5-.682.97-1.878 1.455-3.587 1.455-1.702 0-2.89-.538-3.563-1.615-.666-1.085-1-2.663-1-4.735Zm11.854 6.103V11.756h7.274v2.848h-3.97v6.313h3.773v2.786h-3.773v6.904h4.118v2.848h-7.422Zm19.474-5.918c0 2.096-.374 3.65-1.122 4.66-.748 1.004-1.924 1.505-3.526 1.505-1.603 0-2.803-.534-3.6-1.603-.79-1.077-1.184-2.622-1.184-4.636v-9.456c0-3.23.846-5.248 2.54-6.054.624-.295 1.38-.443 2.268-.443 3.05 0 4.574 1.923 4.574 5.77v2.983h-3.193V17.49c0-1.118-.095-1.915-.284-2.392-.189-.485-.558-.727-1.11-.727-.55 0-.932.255-1.146.764-.213.51-.32 1.29-.32 2.343V27.61c0 1.168.102 2.002.308 2.503.205.502.58.752 1.122.752.542 0 .916-.255 1.122-.764.205-.51.308-1.352.308-2.528v-3.107h3.243v3.07Zm12.396.346c0 1.997-.378 3.468-1.134 4.413-.756.937-1.973 1.406-3.649 1.406-1.669 0-2.885-.473-3.65-1.418-.756-.945-1.134-2.412-1.134-4.401v-16.14h3.304v16.078c0 1.142.053 1.837.16 2.084.107.246.235.472.383.678.156.197.472.296.949.296s.818-.14 1.023-.42c.206-.28.329-.624.37-1.035.049-.42.074-.954.074-1.603V11.744h3.304v16.139Zm7.749-4.624-1.06-.05v10.246h-3.305V11.756h5.462c1.134 0 1.981.23 2.54.69.559.453.925 1.09 1.097 1.912.181.813.271 1.882.271 3.205 0 1.315-.139 2.318-.419 3.008-.279.69-.797 1.155-1.553 1.394.748.131 1.27.637 1.566 1.516.295.88.443 2.712.443 5.499 0 2.778.042 4.27.124 4.475h-3.304c-.083-.164-.124-2.757-.124-7.78 0-.961-.115-1.598-.345-1.91-.23-.32-.695-.49-1.393-.506Zm-1.048-2.614h1.319c.419 0 .728-.094.925-.283.205-.19.345-.514.419-.974.082-.46.123-1.163.123-2.108v-.136c0-1.175-.098-1.944-.296-2.306-.197-.361-.653-.542-1.368-.542h-1.122v6.35Zm9.388 12.81V11.756h7.274v2.848h-3.97v6.313h3.773v2.786h-3.773v6.904h4.118v2.848h-7.422Zm14.671-6.103v-1.935h3.132v2.182c0 1.208.103 2.059.308 2.552.206.485.592.728 1.159.728.567 0 .941-.202 1.122-.605.189-.402.284-1.06.284-1.972 0-.913-.165-1.706-.494-2.38-.328-.682-.85-1.393-1.565-2.133l-1.603-1.652c-.748-.78-1.332-1.59-1.751-2.429-.411-.838-.616-1.808-.616-2.91 0-1.791.345-3.123 1.035-3.994.691-.871 1.878-1.307 3.563-1.307 1.685 0 2.824.51 3.416 1.529.6 1.011.9 2.49.9 4.439v1.343h-3.046v-1.553c0-1.052-.09-1.804-.271-2.256-.181-.46-.53-.69-1.048-.69-.509 0-.879.172-1.109.517-.222.345-.333.863-.333 1.553 0 .691.115 1.242.345 1.653.23.41.645.937 1.245 1.578l1.788 1.935c.896.97 1.57 1.952 2.022 2.947.46.995.69 2.08.69 3.255 0 2.03-.341 3.53-1.023 4.5-.682.97-1.878 1.455-3.588 1.455-1.701 0-2.889-.538-3.563-1.615-.666-1.085-.999-2.663-.999-4.735Zm11.855 6.103V11.756h3.304v8.779h2.959v-8.779h3.304v21.7h-3.304V23.37h-2.959v10.085h-3.304Zm18.894-6.522-1.455-10.899h-.049l-1.332 10.9h2.836Zm-6.806 6.522 3.095-21.699h4.364l3.292 21.7h-3.082l-.518-3.872h-3.502l-.468 3.871h-3.181Zm17.637-10.196-1.061-.05v10.246h-3.304V11.756h5.462c1.134 0 1.981.23 2.54.69.559.453.924 1.09 1.097 1.912.181.813.271 1.882.271 3.205 0 1.315-.14 2.318-.419 3.008-.28.69-.797 1.155-1.554 1.394.748.131 1.27.637 1.566 1.516.296.88.444 2.712.444 5.499 0 2.778.041 4.27.123 4.475h-3.304c-.082-.164-.123-2.757-.123-7.78 0-.961-.115-1.598-.345-1.91-.23-.32-.695-.49-1.393-.506Zm-1.048-2.614h1.319c.419 0 .727-.094.924-.283.206-.19.346-.514.42-.974.082-.46.123-1.163.123-2.108v-.136c0-1.175-.099-1.944-.296-2.306-.197-.361-.653-.542-1.368-.542h-1.122v6.35Zm9.388 12.81V11.756h7.274v2.848h-3.97v6.313h3.773v2.786h-3.773v6.904h4.118v2.848h-7.422Z"/>
    <path fill="#999FAE" d="M73.855 53.32c0 .72-.268 1.274-.803 1.663-.536.39-1.287.585-2.255.585-1.024 0-1.822-.162-2.395-.486v-1.085c.37.188.768.336 1.19.444a5.03 5.03 0 0 0 1.233.162c.611 0 1.08-.096 1.41-.289.328-.197.493-.495.493-.895 0-.3-.132-.556-.395-.767-.258-.217-.766-.47-1.522-.761-.718-.268-1.23-.5-1.536-.698-.3-.202-.526-.43-.676-.683a1.795 1.795 0 0 1-.218-.91c0-.629.256-1.124.768-1.486.512-.366 1.214-.55 2.106-.55.832 0 1.644.17 2.438.508l-.416.951c-.775-.32-1.477-.479-2.106-.479-.555 0-.973.087-1.254.26-.282.175-.423.414-.423.72a.89.89 0 0 0 .155.528c.108.145.28.284.514.416.235.131.686.321 1.353.57.916.334 1.533.67 1.853 1.008.324.338.486.763.486 1.275Zm5.171 2.248c-1.141 0-2.043-.347-2.705-1.042-.658-.696-.987-1.66-.987-2.896 0-1.245.306-2.233.916-2.966.615-.733 1.44-1.1 2.473-1.1.968 0 1.733.32 2.297.959.563.634.845 1.472.845 2.515v.74h-5.319c.024.906.251 1.594.683 2.064.437.47 1.05.705 1.84.705.83 0 1.653-.174 2.465-.522v1.043a5.973 5.973 0 0 1-1.177.38c-.366.08-.81.12-1.331.12Zm-.317-7.024c-.62 0-1.115.202-1.487.606-.366.404-.582.963-.648 1.677h4.037c0-.738-.164-1.301-.493-1.691-.329-.395-.798-.592-1.409-.592Zm10.441 6.883v-4.995c0-.63-.143-1.099-.43-1.409-.286-.31-.735-.465-1.345-.465-.808 0-1.4.219-1.776.655-.376.437-.563 1.158-.563 2.163v4.051h-1.17v-7.721h.951l.19 1.056h.057c.24-.38.575-.673 1.007-.88a3.242 3.242 0 0 1 1.445-.317c.93 0 1.63.225 2.099.676.47.446.705 1.163.705 2.149v5.037h-1.17Zm8.835-1.035h-.064c-.54.784-1.348 1.176-2.423 1.176-1.01 0-1.797-.345-2.36-1.035-.56-.69-.839-1.672-.839-2.945s.282-2.262.846-2.966c.563-.705 1.348-1.057 2.353-1.057 1.047 0 1.85.38 2.41 1.141h.09l-.049-.556-.028-.543v-3.142h1.17v10.962h-.951l-.155-1.035Zm-2.34.197c.8 0 1.377-.216 1.734-.648.361-.437.542-1.14.542-2.107v-.246c0-1.095-.183-1.874-.55-2.34-.36-.469-.941-.704-1.74-.704-.685 0-1.211.268-1.578.803-.361.531-.542 1.282-.542 2.255 0 .986.18 1.73.542 2.233.362.503.893.754 1.593.754Zm14.965.838v-4.995c0-.63-.144-1.099-.43-1.409-.287-.31-.735-.465-1.346-.465-.808 0-1.399.219-1.775.655-.376.437-.564 1.158-.564 2.163v4.051h-1.169v-7.721h.951l.19 1.056h.056a2.37 2.37 0 0 1 1.008-.88 3.24 3.24 0 0 1 1.444-.317c.93 0 1.63.225 2.1.676.469.446.704 1.163.704 2.149v5.037h-1.169Zm10.243-3.867c0 1.258-.317 2.242-.951 2.951-.634.705-1.51 1.057-2.628 1.057-.69 0-1.303-.162-1.838-.486-.536-.324-.949-.789-1.24-1.395-.292-.606-.437-1.315-.437-2.127 0-1.26.315-2.239.944-2.938.629-.705 1.503-1.057 2.621-1.057 1.08 0 1.937.36 2.571 1.078.639.718.958 1.69.958 2.916Zm-5.882 0c0 .986.197 1.737.591 2.254.395.517.975.775 1.741.775.765 0 1.345-.256 1.74-.768.399-.517.599-1.27.599-2.261 0-.982-.2-1.727-.599-2.234-.395-.512-.98-.768-1.755-.768-.765 0-1.343.252-1.733.754-.389.503-.584 1.252-.584 2.248Zm10.434 3.043c.206 0 .406-.014.598-.042.193-.033.346-.066.458-.099v.895c-.126.06-.314.11-.563.148a3.923 3.923 0 0 1-.663.063c-1.493 0-2.24-.786-2.24-2.36v-4.593h-1.106v-.564l1.106-.486.493-1.649h.677v1.79h2.24v.909h-2.24v4.544c0 .465.11.822.331 1.07.22.25.523.374.909.374Zm5.868.965c-1.141 0-2.043-.347-2.705-1.042-.658-.696-.986-1.66-.986-2.896 0-1.245.305-2.233.915-2.966.616-.733 1.44-1.1 2.473-1.1.968 0 1.733.32 2.297.959.564.634.845 1.472.845 2.515v.74h-5.319c.024.906.252 1.594.684 2.064.436.47 1.049.705 1.838.705.832 0 1.654-.174 2.466-.522v1.043a5.964 5.964 0 0 1-1.176.38c-.367.08-.81.12-1.332.12Zm-.317-7.024c-.62 0-1.115.202-1.486.606-.367.404-.583.963-.649 1.677h4.037c0-.738-.164-1.301-.493-1.691-.329-.395-.798-.592-1.409-.592Zm10.138 4.777c0 .718-.267 1.273-.803 1.662-.535.39-1.287.585-2.254.585-1.024 0-1.823-.162-2.396-.486v-1.085c.371.188.768.336 1.191.444.427.108.838.162 1.233.162.61 0 1.08-.096 1.409-.289.329-.197.493-.495.493-.895 0-.3-.132-.556-.395-.767-.258-.217-.765-.47-1.521-.761-.719-.268-1.231-.5-1.536-.698a2.178 2.178 0 0 1-.677-.683 1.802 1.802 0 0 1-.218-.91c0-.629.256-1.124.768-1.486.512-.366 1.214-.55 2.107-.55.831 0 1.643.17 2.437.508l-.415.951c-.775-.32-1.478-.479-2.107-.479-.554 0-.972.087-1.254.26-.282.175-.423.414-.423.72 0 .206.052.382.155.528.108.145.28.284.515.416.234.131.685.321 1.352.57.916.334 1.534.67 1.853 1.008.324.338.486.763.486 1.275Zm10.638 0c0 .718-.267 1.273-.803 1.662-.535.39-1.287.585-2.254.585-1.024 0-1.822-.162-2.396-.486v-1.085c.372.188.768.336 1.191.444.428.108.839.162 1.233.162.611 0 1.08-.096 1.409-.289.329-.197.493-.495.493-.895 0-.3-.131-.556-.394-.767-.259-.217-.766-.47-1.522-.761-.719-.268-1.231-.5-1.536-.698-.3-.202-.526-.43-.676-.683a1.792 1.792 0 0 1-.219-.91c0-.629.256-1.124.768-1.486.512-.366 1.214-.55 2.107-.55.831 0 1.644.17 2.437.508l-.415.951c-.775-.32-1.477-.479-2.107-.479-.554 0-.972.087-1.254.26-.282.175-.423.414-.423.72 0 .206.052.382.155.528.109.145.28.284.515.416.235.131.686.321 1.352.57.916.334 1.534.67 1.853 1.008.324.338.486.763.486 1.275Zm5.172 2.247c-1.142 0-2.043-.347-2.706-1.042-.657-.696-.986-1.66-.986-2.896 0-1.245.305-2.233.916-2.966.615-.733 1.439-1.1 2.473-1.1.967 0 1.733.32 2.296.959.564.634.846 1.472.846 2.515v.74h-5.319c.023.906.251 1.594.683 2.064.437.47 1.05.705 1.839.705.831 0 1.653-.174 2.466-.522v1.043a5.993 5.993 0 0 1-1.177.38c-.366.08-.81.12-1.331.12Zm-.317-7.024c-.62 0-1.116.202-1.487.606-.366.404-.582.963-.648 1.677h4.037c0-.738-.165-1.301-.493-1.691-.329-.395-.799-.592-1.409-.592Zm8.243 7.024c-1.118 0-1.985-.343-2.6-1.028-.611-.69-.916-1.665-.916-2.924 0-1.292.31-2.29.93-2.994.625-.705 1.512-1.057 2.663-1.057.371 0 .742.04 1.113.12.371.08.662.173.874.281l-.36.994a5.244 5.244 0 0 0-.845-.254 3.648 3.648 0 0 0-.81-.106c-1.569 0-2.353 1-2.353 3.002 0 .949.19 1.677.57 2.184.386.507.954.76 1.705.76.644 0 1.304-.138 1.98-.415v1.036c-.517.267-1.167.401-1.951.401Zm4.889-7.862v5.009c0 .63.143 1.099.43 1.409.286.31.735.465 1.345.465.808 0 1.398-.22 1.769-.662.375-.442.563-1.163.563-2.163v-4.058h1.17v7.721h-.965l-.17-1.035h-.063c-.239.38-.573.671-1 .873-.423.202-.907.303-1.452.303-.939 0-1.644-.223-2.113-.67-.465-.445-.698-1.16-.698-2.14v-5.052h1.184Zm11.286-.141c.343 0 .651.028.923.084l-.162 1.085a3.976 3.976 0 0 0-.845-.105c-.625 0-1.16.253-1.607.76-.441.508-.662 1.14-.662 1.896v4.142h-1.169v-7.721h.965l.134 1.43h.056c.287-.503.632-.89 1.036-1.163a2.332 2.332 0 0 1 1.331-.408Zm5.629 8.003c-1.141 0-2.043-.347-2.705-1.042-.658-.696-.986-1.66-.986-2.896 0-1.245.305-2.233.916-2.966.615-.733 1.439-1.1 2.472-1.1.968 0 1.734.32 2.297.959.564.634.846 1.472.846 2.515v.74h-5.32c.024.906.252 1.594.684 2.064.437.47 1.05.705 1.839.705.831 0 1.653-.174 2.465-.522v1.043a5.964 5.964 0 0 1-1.176.38c-.366.08-.81.12-1.332.12Zm-.317-7.024c-.62 0-1.115.202-1.486.606-.367.404-.583.963-.648 1.677h4.037c0-.738-.165-1.301-.494-1.691-.328-.395-.798-.592-1.409-.592Zm6.327 6.883h-1.17V44.465h1.17v10.962Zm1.254-7.721h1.254l1.691 4.403c.371 1.005.601 1.73.69 2.177h.057c.061-.24.188-.648.38-1.226.197-.582.836-2.367 1.916-5.354h1.254l-3.318 8.792c-.329.87-.714 1.484-1.155 1.846-.437.366-.975.55-1.614.55-.357 0-.709-.04-1.056-.12v-.937c.258.056.547.084.866.084.803 0 1.376-.45 1.719-1.352l.43-1.1-3.114-7.763Z"/>
  </g>
  <defs>
    <clipPath id="a">
      <path fill="#fff" d="M0 .438h202v63.124H0z"/>
    </clipPath>
  </defs>
</svg>
