<svg xmlns="http://www.w3.org/2000/svg" width="37" height="37" fill="none">
  <circle cx="18.5" cy="18.5" r="18" fill="#0D4AB4" stroke="#1E65E1"/>
  <path fill="#F7F9FE" d="M13.948 12.566c.256-.232.536-.452.84-.66.304-.208.636-.392.996-.552.36-.16.748-.284 1.164-.372a6.026 6.026 0 0 1 1.356-.144c.64 0 1.232.092 1.776.276a4.084 4.084 0 0 1 1.404.792c.4.336.712.748.936 1.236.224.48.336 1.02.336 1.62 0 .608-.092 1.136-.276 1.584-.176.44-.4.824-.672 1.152a5.395 5.395 0 0 1-.9.864l-.912.684c-.28.216-.524.432-.732.648a1.187 1.187 0 0 0-.36.708l-.228 1.824h-1.56l-.144-1.992c-.04-.36.024-.676.192-.948.168-.272.388-.524.66-.756.272-.24.568-.472.888-.696a6.85 6.85 0 0 0 .912-.744c.288-.28.528-.596.72-.948.192-.352.288-.768.288-1.248 0-.336-.068-.64-.204-.912a1.996 1.996 0 0 0-.54-.696 2.235 2.235 0 0 0-.792-.432 3.02 3.02 0 0 0-.984-.156c-.48 0-.892.06-1.236.18-.344.112-.636.24-.876.384-.24.136-.436.264-.588.384-.152.112-.276.168-.372.168a.515.515 0 0 1-.48-.276l-.612-.972Zm2.34 14.304c0-.216.04-.416.12-.6.08-.192.188-.36.324-.504.136-.144.3-.256.492-.336.192-.08.396-.12.612-.12.216 0 .416.04.6.12.192.08.356.192.492.336.144.144.256.312.336.504.08.184.12.384.12.6 0 .224-.04.432-.12.624-.08.184-.192.348-.336.492-.136.136-.3.244-.492.324-.184.08-.384.12-.6.12a1.575 1.575 0 0 1-1.104-.444 1.695 1.695 0 0 1-.324-.492c-.08-.192-.12-.4-.12-.624Z"/>
</svg>
